<mxfile host="app.diagrams.net" modified="2022-12-19T09:43:25.339Z" agent="5.0 (Windows NT 10.0; Win64; x64) AppleWebKit/537.36 (KHTML, like Gecko) Chrome/108.0.0.0 Safari/537.36 Edg/108.0.1462.46" version="20.7.3" etag="wB2E-lpnR1UOJx3WINU0" type="github">
  <diagram id="ozuRvmBjX-zElENlbsmt" name="第 1 页">
    <mxGraphModel dx="2027" dy="1134" grid="1" gridSize="10" guides="1" tooltips="1" connect="1" arrows="1" fold="1" page="1" pageScale="1" pageWidth="850" pageHeight="1100" math="0" shadow="0">
      <root>
        <mxCell id="0" />
        <mxCell id="1" parent="0" />
        <mxCell id="zcJiYJ21QPwQPa66EBtX-11" value="" style="rounded=0;whiteSpace=wrap;html=1;fillColor=#eeeeee;strokeColor=#36393d;" vertex="1" parent="1">
          <mxGeometry x="360" y="240" width="480" height="400" as="geometry" />
        </mxCell>
        <mxCell id="zcJiYJ21QPwQPa66EBtX-10" value="" style="rounded=0;whiteSpace=wrap;html=1;fillColor=#dae8fc;strokeColor=#6c8ebf;" vertex="1" parent="1">
          <mxGeometry x="40" y="240" width="320" height="400" as="geometry" />
        </mxCell>
        <mxCell id="zcJiYJ21QPwQPa66EBtX-9" style="edgeStyle=orthogonalEdgeStyle;rounded=0;orthogonalLoop=1;jettySize=auto;html=1;entryX=0;entryY=0.5;entryDx=0;entryDy=0;" edge="1" parent="1" source="zcJiYJ21QPwQPa66EBtX-1" target="zcJiYJ21QPwQPa66EBtX-2">
          <mxGeometry relative="1" as="geometry" />
        </mxCell>
        <mxCell id="zcJiYJ21QPwQPa66EBtX-1" value="Paddle" style="whiteSpace=wrap;html=1;aspect=fixed;fillColor=#ffcc99;strokeColor=#36393d;" vertex="1" parent="1">
          <mxGeometry x="80" y="400" width="80" height="80" as="geometry" />
        </mxCell>
        <mxCell id="zcJiYJ21QPwQPa66EBtX-2" value="PaddleSlim" style="whiteSpace=wrap;html=1;aspect=fixed;fillColor=#ffcccc;strokeColor=#36393d;" vertex="1" parent="1">
          <mxGeometry x="240" y="400" width="80" height="80" as="geometry" />
        </mxCell>
        <mxCell id="zcJiYJ21QPwQPa66EBtX-3" value="OpenVINO" style="rounded=1;whiteSpace=wrap;html=1;fillColor=#0050ef;fontColor=#ffffff;strokeColor=#001DBC;" vertex="1" parent="1">
          <mxGeometry x="480" y="280" width="120" height="60" as="geometry" />
        </mxCell>
        <mxCell id="zcJiYJ21QPwQPa66EBtX-4" value="PaddleInfer" style="rounded=1;whiteSpace=wrap;html=1;fillColor=#e3c800;fontColor=#000000;strokeColor=#B09500;" vertex="1" parent="1">
          <mxGeometry x="480" y="410" width="120" height="60" as="geometry" />
        </mxCell>
        <mxCell id="zcJiYJ21QPwQPa66EBtX-5" value="..." style="rounded=1;whiteSpace=wrap;html=1;fillColor=#f9f7ed;strokeColor=#36393d;" vertex="1" parent="1">
          <mxGeometry x="480" y="540" width="120" height="60" as="geometry" />
        </mxCell>
        <mxCell id="zcJiYJ21QPwQPa66EBtX-6" value="" style="endArrow=classic;html=1;rounded=0;exitX=1;exitY=0.5;exitDx=0;exitDy=0;entryX=0;entryY=0.5;entryDx=0;entryDy=0;" edge="1" parent="1" source="zcJiYJ21QPwQPa66EBtX-2" target="zcJiYJ21QPwQPa66EBtX-4">
          <mxGeometry width="50" height="50" relative="1" as="geometry">
            <mxPoint x="370" y="400" as="sourcePoint" />
            <mxPoint x="420" y="350" as="targetPoint" />
          </mxGeometry>
        </mxCell>
        <mxCell id="zcJiYJ21QPwQPa66EBtX-7" value="" style="endArrow=classic;html=1;rounded=0;entryX=0;entryY=0.5;entryDx=0;entryDy=0;exitX=1;exitY=0.5;exitDx=0;exitDy=0;" edge="1" parent="1" source="zcJiYJ21QPwQPa66EBtX-2" target="zcJiYJ21QPwQPa66EBtX-3">
          <mxGeometry width="50" height="50" relative="1" as="geometry">
            <mxPoint x="350" y="380" as="sourcePoint" />
            <mxPoint x="400" y="330" as="targetPoint" />
            <Array as="points">
              <mxPoint x="400" y="440" />
              <mxPoint x="400" y="310" />
            </Array>
          </mxGeometry>
        </mxCell>
        <mxCell id="zcJiYJ21QPwQPa66EBtX-8" value="" style="endArrow=classic;html=1;rounded=0;entryX=0;entryY=0.5;entryDx=0;entryDy=0;" edge="1" parent="1" target="zcJiYJ21QPwQPa66EBtX-5">
          <mxGeometry width="50" height="50" relative="1" as="geometry">
            <mxPoint x="320" y="440" as="sourcePoint" />
            <mxPoint x="350" y="540" as="targetPoint" />
            <Array as="points">
              <mxPoint x="400" y="440" />
              <mxPoint x="400" y="570" />
            </Array>
          </mxGeometry>
        </mxCell>
        <mxCell id="zcJiYJ21QPwQPa66EBtX-12" value="enable conv/matmul/..." style="whiteSpace=wrap;html=1;shape=mxgraph.basic.cloud_callout;fillColor=#f5f5f5;fontColor=#333333;strokeColor=#666666;" vertex="1" parent="1">
          <mxGeometry x="600" y="390" width="190" height="60" as="geometry" />
        </mxCell>
        <mxCell id="zcJiYJ21QPwQPa66EBtX-13" value="disable concat/reshape" style="whiteSpace=wrap;html=1;shape=mxgraph.basic.cloud_callout;fillColor=#f5f5f5;fontColor=#333333;strokeColor=#666666;" vertex="1" parent="1">
          <mxGeometry x="600" y="260" width="190" height="60" as="geometry" />
        </mxCell>
        <mxCell id="zcJiYJ21QPwQPa66EBtX-14" value="&lt;font style=&quot;font-size: 14px;&quot;&gt;&lt;b&gt;YOLO&lt;/b&gt;&lt;/font&gt;" style="text;html=1;strokeColor=default;fillColor=none;align=center;verticalAlign=middle;whiteSpace=wrap;rounded=0;" vertex="1" parent="1">
          <mxGeometry x="60" y="260" width="60" height="30" as="geometry" />
        </mxCell>
      </root>
    </mxGraphModel>
  </diagram>
</mxfile>
